<?xml version="1.0" encoding="utf-8"?>
<!-- Generator: Adobe Illustrator 26.3.1, SVG Export Plug-In . SVG Version: 6.00 Build 0)  -->
<svg version="1.0" xmlns="http://www.w3.org/2000/svg" xmlns:xlink="http://www.w3.org/1999/xlink" x="0px" y="0px"
	 viewBox="0 0 224.48 215.18" style="enable-background:new 0 0 224.48 215.18;" xml:space="preserve">
<style type="text/css">
	.st0{display:none;}
	.st1{display:inline;fill:#AA3F6B;}
	.st2{display:inline;fill:#FFFFFF;}
	.st3{display:inline;fill:#E3759E;}
	.st4{fill:#3F4755;}
	.st5{fill:#FF5789;}
	.st6{display:inline;fill:#FF5789;}
	.st7{display:inline;fill:#3F4755;}
	.st8{display:inline;fill:#E8BF43;}
	.st9{display:inline;fill:#00A1FF;}
	.st10{display:inline;fill:#A3ACBB;}
	.st11{display:inline;fill:#3F4856;}
	.st12{display:inline;fill:#4EE8FF;}
	.st13{display:inline;fill:#6773A2;}
	.st14{display:inline;fill:#3FF2DE;}
	.st15{display:inline;fill:#290E05;}
</style>
<g id="icon_-_brandy" class="st0">
	<rect class="st1" width="224.48" height="215.18"/>
	<path class="st2" d="M164.61,92.68c0,14.51-5.13,26.89-15.38,37.14c-10.25,10.26-22.64,15.38-37.14,15.38
		c-14.51,0-26.89-5.13-37.14-15.38c-10.25-10.25-15.38-22.63-15.38-37.14c0-14.5,5.13-26.88,15.38-37.14
		c10.25-10.25,22.63-15.38,37.14-15.38c14.51,0,26.89,5.13,37.14,15.38C159.48,65.8,164.61,78.18,164.61,92.68z M112.09,55.17
		c-10.38,0-19.23,3.66-26.54,10.97c-7.32,7.32-10.97,16.16-10.97,26.54c0,10.38,3.66,19.23,10.97,26.54
		c7.32,7.32,16.16,10.97,26.54,10.97c10.38,0,19.23-3.66,26.54-10.97c7.32-7.31,10.97-16.16,10.97-26.54
		c0-10.38-3.66-19.23-10.97-26.54C131.31,58.83,122.46,55.17,112.09,55.17z"/>
	<path class="st3" d="M157.1,160.22c2.06,0,3.83,0.73,5.3,2.2c1.47,1.47,2.2,3.24,2.2,5.3c0,2.06-0.73,3.83-2.2,5.3
		c-1.47,1.47-3.24,2.2-5.3,2.2H67.07c-2.06,0-3.83-0.74-5.3-2.2c-1.47-1.47-2.2-3.24-2.2-5.3c0-2.06,0.73-3.83,2.2-5.3
		c1.47-1.47,3.24-2.2,5.3-2.2H157.1z"/>
</g>
<g id="icon_-_pink_copy" class="st0">
	<rect class="st3" width="224.48" height="215.18"/>
	<path class="st2" d="M164.61,92.68c0,14.51-5.13,26.89-15.38,37.14c-10.25,10.26-22.64,15.38-37.14,15.38
		c-14.51,0-26.89-5.13-37.14-15.38c-10.25-10.25-15.38-22.63-15.38-37.14c0-14.5,5.13-26.88,15.38-37.14
		c10.25-10.25,22.63-15.38,37.14-15.38c14.51,0,26.89,5.13,37.14,15.38C159.48,65.8,164.61,78.18,164.61,92.68z M112.09,55.17
		c-10.38,0-19.23,3.66-26.54,10.97c-7.32,7.32-10.97,16.16-10.97,26.54c0,10.38,3.66,19.23,10.97,26.54
		c7.32,7.32,16.16,10.97,26.54,10.97c10.38,0,19.23-3.66,26.54-10.97c7.32-7.31,10.97-16.16,10.97-26.54
		c0-10.38-3.66-19.23-10.97-26.54C131.31,58.83,122.46,55.17,112.09,55.17z"/>
	<path class="st1" d="M157.1,160.22c2.06,0,3.83,0.73,5.3,2.2c1.47,1.47,2.2,3.24,2.2,5.3c0,2.06-0.73,3.83-2.2,5.3
		c-1.47,1.47-3.24,2.2-5.3,2.2H67.07c-2.06,0-3.83-0.74-5.3-2.2c-1.47-1.47-2.2-3.24-2.2-5.3c0-2.06,0.73-3.83,2.2-5.3
		c1.47-1.47,3.24-2.2,5.3-2.2H157.1z"/>
</g>
<g id="product_-_pink">
	<path class="st4" d="M164.61,92.68c0,14.51-5.13,26.89-15.38,37.14c-10.25,10.26-22.64,15.38-37.14,15.38
		c-14.51,0-26.89-5.13-37.14-15.38c-10.25-10.25-15.38-22.63-15.38-37.14c0-14.5,5.13-26.88,15.38-37.14
		c10.25-10.25,22.63-15.38,37.14-15.38c14.51,0,26.89,5.13,37.14,15.38C159.48,65.8,164.61,78.18,164.61,92.68z M112.09,55.17
		c-10.38,0-19.23,3.66-26.54,10.97c-7.32,7.32-10.97,16.16-10.97,26.54c0,10.38,3.66,19.23,10.97,26.54
		c7.32,7.32,16.16,10.97,26.54,10.97c10.38,0,19.23-3.66,26.54-10.97c7.32-7.31,10.97-16.16,10.97-26.54
		c0-10.38-3.66-19.23-10.97-26.54C131.31,58.83,122.46,55.17,112.09,55.17z"/>
	<path class="st5" d="M157.1,160.22c2.06,0,3.83,0.73,5.3,2.2c1.47,1.47,2.2,3.24,2.2,5.3c0,2.06-0.73,3.83-2.2,5.3
		c-1.47,1.47-3.24,2.2-5.3,2.2H67.07c-2.06,0-3.83-0.74-5.3-2.2c-1.47-1.47-2.2-3.24-2.2-5.3c0-2.06,0.73-3.83,2.2-5.3
		c1.47-1.47,3.24-2.2,5.3-2.2H157.1z"/>
</g>
<g id="product_-_white" class="st0">
	<path class="st2" d="M164.61,92.68c0,14.51-5.13,26.89-15.38,37.14c-10.25,10.26-22.64,15.38-37.14,15.38
		c-14.51,0-26.89-5.13-37.14-15.38c-10.25-10.25-15.38-22.63-15.38-37.14c0-14.5,5.13-26.88,15.38-37.14
		c10.25-10.25,22.63-15.38,37.14-15.38c14.51,0,26.89,5.13,37.14,15.38C159.48,65.8,164.61,78.18,164.61,92.68z M112.09,55.17
		c-10.38,0-19.23,3.66-26.54,10.97c-7.32,7.32-10.97,16.16-10.97,26.54c0,10.38,3.66,19.23,10.97,26.54
		c7.32,7.32,16.16,10.97,26.54,10.97c10.38,0,19.23-3.66,26.54-10.97c7.32-7.31,10.97-16.16,10.97-26.54
		c0-10.38-3.66-19.23-10.97-26.54C131.31,58.83,122.46,55.17,112.09,55.17z"/>
	<path class="st6" d="M157.1,160.22c2.06,0,3.83,0.73,5.3,2.2c1.47,1.47,2.2,3.24,2.2,5.3c0,2.06-0.73,3.83-2.2,5.3
		c-1.47,1.47-3.24,2.2-5.3,2.2H67.07c-2.06,0-3.83-0.74-5.3-2.2c-1.47-1.47-2.2-3.24-2.2-5.3c0-2.06,0.73-3.83,2.2-5.3
		c1.47-1.47,3.24-2.2,5.3-2.2H157.1z"/>
</g>
<g id="product_-_brandy_copy" class="st0">
	<path class="st7" d="M164.61,92.68c0,14.51-5.13,26.89-15.38,37.14c-10.25,10.26-22.64,15.38-37.14,15.38
		c-14.51,0-26.89-5.13-37.14-15.38c-10.25-10.25-15.38-22.63-15.38-37.14c0-14.5,5.13-26.88,15.38-37.14
		c10.25-10.25,22.63-15.38,37.14-15.38c14.51,0,26.89,5.13,37.14,15.38C159.48,65.8,164.61,78.18,164.61,92.68z M112.09,55.17
		c-10.38,0-19.23,3.66-26.54,10.97c-7.32,7.32-10.97,16.16-10.97,26.54c0,10.38,3.66,19.23,10.97,26.54
		c7.32,7.32,16.16,10.97,26.54,10.97c10.38,0,19.23-3.66,26.54-10.97c7.32-7.31,10.97-16.16,10.97-26.54
		c0-10.38-3.66-19.23-10.97-26.54C131.31,58.83,122.46,55.17,112.09,55.17z"/>
	<path class="st1" d="M157.1,160.22c2.06,0,3.83,0.73,5.3,2.2c1.47,1.47,2.2,3.24,2.2,5.3c0,2.06-0.73,3.83-2.2,5.3
		c-1.47,1.47-3.24,2.2-5.3,2.2H67.07c-2.06,0-3.83-0.74-5.3-2.2c-1.47-1.47-2.2-3.24-2.2-5.3c0-2.06,0.73-3.83,2.2-5.3
		c1.47-1.47,3.24-2.2,5.3-2.2H157.1z"/>
</g>
<g id="icon_-_yellow_copy" class="st0">
	<rect class="st8" width="224.48" height="215.18"/>
	<path class="st2" d="M164.61,92.68c0,14.51-5.13,26.89-15.38,37.14c-10.25,10.26-22.64,15.38-37.14,15.38
		c-14.51,0-26.89-5.13-37.14-15.38c-10.25-10.25-15.38-22.63-15.38-37.14c0-14.5,5.13-26.88,15.38-37.14
		c10.25-10.25,22.63-15.38,37.14-15.38c14.51,0,26.89,5.13,37.14,15.38C159.48,65.8,164.61,78.18,164.61,92.68z M112.09,55.17
		c-10.38,0-19.23,3.66-26.54,10.97c-7.32,7.32-10.97,16.16-10.97,26.54c0,10.38,3.66,19.23,10.97,26.54
		c7.32,7.32,16.16,10.97,26.54,10.97c10.38,0,19.23-3.66,26.54-10.97c7.32-7.31,10.97-16.16,10.97-26.54
		c0-10.38-3.66-19.23-10.97-26.54C131.31,58.83,122.46,55.17,112.09,55.17z"/>
	<path class="st9" d="M157.1,160.22c2.06,0,3.83,0.73,5.3,2.2c1.47,1.47,2.2,3.24,2.2,5.3c0,2.06-0.73,3.83-2.2,5.3
		c-1.47,1.47-3.24,2.2-5.3,2.2H67.07c-2.06,0-3.83-0.74-5.3-2.2c-1.47-1.47-2.2-3.24-2.2-5.3c0-2.06,0.73-3.83,2.2-5.3
		c1.47-1.47,3.24-2.2,5.3-2.2H157.1z"/>
</g>
<g id="icon_-_light_grey_copy" class="st0">
	<rect class="st10" width="224.48" height="215.18"/>
	<path class="st2" d="M164.61,92.68c0,14.51-5.13,26.89-15.38,37.14c-10.25,10.26-22.64,15.38-37.14,15.38
		c-14.51,0-26.89-5.13-37.14-15.38c-10.25-10.25-15.38-22.63-15.38-37.14c0-14.5,5.13-26.88,15.38-37.14
		c10.25-10.25,22.63-15.38,37.14-15.38c14.51,0,26.89,5.13,37.14,15.38C159.48,65.8,164.61,78.18,164.61,92.68z M112.09,55.17
		c-10.38,0-19.23,3.66-26.54,10.97c-7.32,7.32-10.97,16.16-10.97,26.54c0,10.38,3.66,19.23,10.97,26.54
		c7.32,7.32,16.16,10.97,26.54,10.97c10.38,0,19.23-3.66,26.54-10.97c7.32-7.31,10.97-16.16,10.97-26.54
		c0-10.38-3.66-19.23-10.97-26.54C131.31,58.83,122.46,55.17,112.09,55.17z"/>
	<path class="st9" d="M157.1,160.22c2.06,0,3.83,0.73,5.3,2.2c1.47,1.47,2.2,3.24,2.2,5.3c0,2.06-0.73,3.83-2.2,5.3
		c-1.47,1.47-3.24,2.2-5.3,2.2H67.07c-2.06,0-3.83-0.74-5.3-2.2c-1.47-1.47-2.2-3.24-2.2-5.3c0-2.06,0.73-3.83,2.2-5.3
		c1.47-1.47,3.24-2.2,5.3-2.2H157.1z"/>
</g>
<g id="icon_-_dark_grey_copy" class="st0">
	<rect class="st11" width="224.48" height="215.18"/>
	<path class="st2" d="M164.61,92.68c0,14.51-5.13,26.89-15.38,37.14c-10.25,10.26-22.64,15.38-37.14,15.38
		c-14.51,0-26.89-5.13-37.14-15.38c-10.25-10.25-15.38-22.63-15.38-37.14c0-14.5,5.13-26.88,15.38-37.14
		c10.25-10.25,22.63-15.38,37.14-15.38c14.51,0,26.89,5.13,37.14,15.38C159.48,65.8,164.61,78.18,164.61,92.68z M112.09,55.17
		c-10.38,0-19.23,3.66-26.54,10.97c-7.32,7.32-10.97,16.16-10.97,26.54c0,10.38,3.66,19.23,10.97,26.54
		c7.32,7.32,16.16,10.97,26.54,10.97c10.38,0,19.23-3.66,26.54-10.97c7.32-7.31,10.97-16.16,10.97-26.54
		c0-10.38-3.66-19.23-10.97-26.54C131.31,58.83,122.46,55.17,112.09,55.17z"/>
	<path class="st9" d="M157.1,160.22c2.06,0,3.83,0.73,5.3,2.2c1.47,1.47,2.2,3.24,2.2,5.3c0,2.06-0.73,3.83-2.2,5.3
		c-1.47,1.47-3.24,2.2-5.3,2.2H67.07c-2.06,0-3.83-0.74-5.3-2.2c-1.47-1.47-2.2-3.24-2.2-5.3c0-2.06,0.73-3.83,2.2-5.3
		c1.47-1.47,3.24-2.2,5.3-2.2H157.1z"/>
</g>
<g id="icon_-_blue" class="st0">
	<rect class="st9" width="224.48" height="215.18"/>
	<path class="st2" d="M164.61,92.68c0,14.51-5.13,26.89-15.38,37.14c-10.25,10.26-22.64,15.38-37.14,15.38
		c-14.51,0-26.89-5.13-37.14-15.38c-10.25-10.25-15.38-22.63-15.38-37.14c0-14.5,5.13-26.88,15.38-37.14
		c10.25-10.25,22.63-15.38,37.14-15.38c14.51,0,26.89,5.13,37.14,15.38C159.48,65.8,164.61,78.18,164.61,92.68z M112.09,55.17
		c-10.38,0-19.23,3.66-26.54,10.97c-7.32,7.32-10.97,16.16-10.97,26.54c0,10.38,3.66,19.23,10.97,26.54
		c7.32,7.32,16.16,10.97,26.54,10.97c10.38,0,19.23-3.66,26.54-10.97c7.32-7.31,10.97-16.16,10.97-26.54
		c0-10.38-3.66-19.23-10.97-26.54C131.31,58.83,122.46,55.17,112.09,55.17z"/>
	<path class="st12" d="M157.1,160.22c2.06,0,3.83,0.73,5.3,2.2c1.47,1.47,2.2,3.24,2.2,5.3c0,2.06-0.73,3.83-2.2,5.3
		c-1.47,1.47-3.24,2.2-5.3,2.2H67.07c-2.06,0-3.83-0.74-5.3-2.2c-1.47-1.47-2.2-3.24-2.2-5.3c0-2.06,0.73-3.83,2.2-5.3
		c1.47-1.47,3.24-2.2,5.3-2.2H157.1z"/>
</g>
<g id="main_icon" class="st0">
	<path class="st7" d="M164.61,92.68c0,14.51-5.13,26.89-15.38,37.14c-10.25,10.26-22.64,15.38-37.14,15.38
		c-14.51,0-26.89-5.13-37.14-15.38c-10.25-10.25-15.38-22.63-15.38-37.14c0-14.5,5.13-26.88,15.38-37.14
		c10.25-10.25,22.63-15.38,37.14-15.38c14.51,0,26.89,5.13,37.14,15.38C159.48,65.8,164.61,78.18,164.61,92.68z M112.09,55.17
		c-10.38,0-19.23,3.66-26.54,10.97c-7.32,7.32-10.97,16.16-10.97,26.54c0,10.38,3.66,19.23,10.97,26.54
		c7.32,7.32,16.16,10.97,26.54,10.97c10.38,0,19.23-3.66,26.54-10.97c7.32-7.31,10.97-16.16,10.97-26.54
		c0-10.38-3.66-19.23-10.97-26.54C131.31,58.83,122.46,55.17,112.09,55.17z"/>
	<path class="st9" d="M157.1,160.22c2.06,0,3.83,0.73,5.3,2.2c1.47,1.47,2.2,3.24,2.2,5.3c0,2.06-0.73,3.83-2.2,5.3
		c-1.47,1.47-3.24,2.2-5.3,2.2H67.07c-2.06,0-3.83-0.74-5.3-2.2c-1.47-1.47-2.2-3.24-2.2-5.3c0-2.06,0.73-3.83,2.2-5.3
		c1.47-1.47,3.24-2.2,5.3-2.2H157.1z"/>
</g>
<g id="color_palette" class="st0">
	<rect x="-69.38" y="317.25" class="st9" width="60.19" height="51.15"/>
	<rect x="6.51" y="317.25" class="st7" width="60.19" height="51.15"/>
	<rect x="82.4" y="317.25" class="st10" width="60.19" height="51.15"/>
	<rect x="159.57" y="317.25" class="st8" width="60.19" height="51.15"/>
	<rect x="-74.37" y="381.38" style="display:inline;fill:none;" width="72.49" height="19.11"/>
	<text transform="matrix(1 0 0 1 -59.468 389.9688)" style="display:inline; font-family:'ArialMT'; font-size:12px;">00A1FF</text>
	<rect x="76.2" y="290.13" style="display:inline;fill:none;" width="72.49" height="19.11"/>
	<text transform="matrix(1 0 0 1 91.7788 298.7207)" style="display:inline; font-family:'ArialMT'; font-size:12px;">Primary</text>
	<rect x="76.2" y="441.66" style="display:inline;fill:none;" width="72.49" height="19.11"/>
	<text transform="matrix(1 0 0 1 83.7602 450.2541)" style="display:inline; font-family:'ArialMT'; font-size:12px;">Secondary</text>
	<rect x="0.36" y="381.38" style="display:inline;fill:none;" width="72.49" height="19.11"/>
	<text transform="matrix(1 0 0 1 16.2573 389.9688)" style="display:inline; font-family:'ArialMT'; font-size:12px;">3F4755</text>
	<rect x="76.25" y="381.38" style="display:inline;fill:none;" width="72.49" height="19.11"/>
	<text transform="matrix(1 0 0 1 88.8217 389.9688)" style="display:inline; font-family:'ArialMT'; font-size:12px;">A3ACBB</text>
	<rect x="152.15" y="381.38" style="display:inline;fill:none;" width="72.49" height="19.11"/>
	<text transform="matrix(1 0 0 1 166.7123 389.9688)" style="display:inline; font-family:'ArialMT'; font-size:12px;">E8BF43</text>
	<rect x="234.47" y="317.25" class="st1" width="60.19" height="51.15"/>
	<rect x="227.05" y="381.38" style="display:inline;fill:none;" width="72.49" height="19.11"/>
	<text transform="matrix(1 0 0 1 240.9462 389.9688)" style="display:inline; font-family:'ArialMT'; font-size:12px;">AA3F6B</text>
	<rect x="-69.38" y="468.41" class="st13" width="60.19" height="51.15"/>
	<rect x="6.51" y="468.41" class="st14" width="60.19" height="51.15"/>
	<rect x="82.4" y="468.41" class="st12" width="60.19" height="51.15"/>
	<rect x="158.3" y="468.41" class="st6" width="60.19" height="51.15"/>
	<rect x="234.19" y="468.41" class="st15" width="60.19" height="51.15"/>
	<rect x="-74.37" y="532.54" style="display:inline;fill:none;" width="72.49" height="19.11"/>
	<text transform="matrix(1 0 0 1 -58.8117 541.1329)" style="display:inline; font-family:'ArialMT'; font-size:12px;">6773A2</text>
	<rect x="0.36" y="532.54" style="display:inline;fill:none;" width="72.49" height="19.11"/>
	<text transform="matrix(1 0 0 1 14.2681 541.1329)" style="display:inline; font-family:'ArialMT'; font-size:12px;">3FF2DE</text>
	<rect x="76.25" y="532.54" style="display:inline;fill:none;" width="72.49" height="19.11"/>
	<text transform="matrix(1 0 0 1 90.4917 541.1329)" style="display:inline; font-family:'ArialMT'; font-size:12px;">4EE8FF</text>
	<rect x="152.15" y="532.54" style="display:inline;fill:none;" width="72.49" height="19.11"/>
	<text transform="matrix(1 0 0 1 167.7143 541.1329)" style="display:inline; font-family:'ArialMT'; font-size:12px;">FF5789</text>
	<rect x="226.77" y="532.54" style="display:inline;fill:none;" width="72.49" height="19.11"/>
	<text transform="matrix(1 0 0 1 242.3282 541.1329)" style="display:inline; font-family:'ArialMT'; font-size:12px;">290E05</text>
</g>
</svg>
